{"title":"The Rocker (2008) [R5] [Xvid] {1337x}-Noir","uid":4422169,"size":761225443,"categoryP":"video","categoryS":"movies","magnet":"?xt=urn:btih:94853dbbcb92fa6fde464232633414d6589d46c8&amp;dn=The+Rocker+%282008%29+%5BR5%5D+%5BXvid%5D+%7B1337x%7D-Noir&amp;tr=udp%3A%2F%2Ftracker.openbittorrent.com%3A80&amp;tr=udp%3A%2F%2Fopen.demonii.com%3A1337&amp;tr=udp%3A%2F%2Ftracker.coppersurfer.tk%3A6969&amp;tr=udp%3A%2F%2Fexodus.desync.com%3A6969","seeders":1,"leechers":0,"uploader":"INoirI","files":3,"time":1222840276,"description":"                            Screenshots\n\n &lt;a href=&quot;\nhttp://i220.photobucket.com/albums/dd94/ItheplagueI/TheRock_0000.jpg&quot; rel=&quot;nofollow&quot; target=&quot;_NEW&quot;&gt;\nhttp://i220.photobucket.com/albums/dd94/ItheplagueI/TheRock_0000.jpg&lt;/a&gt;\n &lt;a href=&quot;\nhttp://i220.photobucket.com/albums/dd94/ItheplagueI/TheRock_0004.jpg&quot; rel=&quot;nofollow&quot; target=&quot;_NEW&quot;&gt;\nhttp://i220.photobucket.com/albums/dd94/ItheplagueI/TheRock_0004.jpg&lt;/a&gt;\n &lt;a href=&quot;\nhttp://i220.photobucket.com/albums/dd94/ItheplagueI/TheRock_0006.jpg&quot; rel=&quot;nofollow&quot; target=&quot;_NEW&quot;&gt;\nhttp://i220.photobucket.com/albums/dd94/ItheplagueI/TheRock_0006.jpg&lt;/a&gt;\n &lt;a href=&quot;\nhttp://i220.photobucket.com/albums/dd94/ItheplagueI/TheRock_0003.jpg&quot; rel=&quot;nofollow&quot; target=&quot;_NEW&quot;&gt;\nhttp://i220.photobucket.com/albums/dd94/ItheplagueI/TheRock_0003.jpg&lt;/a&gt;\n\n\n                    *********************\n                    * The Rocker (2008) *\n                    *********************\n\n________________________\n   General Information  |  \n________________________|\n_______________________________________________________________\nType                    : Movie                                |\nFormat                  : AVI                                  |\nFormat/Info             : Audio Video Interleave               |\nFile size               : 726Mb                                |\nDuration                : 1h 38mn                              |\nLanguage                : English                              |\nSubtitles               : None                                 |\nSource                  : Dvd PAL                              |\nGenre                   : Comedy | Music                       |\nIMDB Link               : http://www.imdb.com/title/tt0367882/ |\nRating                  : 5.9/10                               |\n_______________________________________________________________|\n________________________________________________________________\nVideo\nFormat                           : MPEG-4 Visual\nFormat profile                   : Streaming Video@L1\nFormat settings, BVOP            : Yes\nFormat settings, QPel            : No\nFormat settings, GMC             : No warppoints\nFormat settings, Matrix          : Default\nMuxing mode                      : Packed bitstream\nCodec ID                         : XVID\nCodec ID/Hint                    : XviD\nDuration                         : 1h 38mn\nBit rate                         : 898 Kbps\nWidth                            : 624 pixels\nHeight                           : 336 pixels\nDisplay aspect ratio             : 16/9\nFrame rate                       : 25.000 fps\nResolution                       : 24 bits\nColorimetry                      : 4:2:0\nScan type                        : Progressive\nBits/(Pixel*Frame)               : 0.171\nStream size                      : 629 MiB (87%)            \n_______________________________________________________________\nAudio\nFormat                           : MPEG Audio\nFormat version                   : Version 1\nFormat profile                   : Layer 3\nCodec ID                         : 55\nCodec ID/Hint                    : MP3\nDuration                         : 1h 38mn\nBit rate mode                    : Constant\nBit rate                         : 128 Kbps\nMinimum bit rate                 : 128 Kbps\nChannel(s)                       : 2 channels\nSampling rate                    : 48.0 KHz\nResolution                       : 16 bits\nStream size                      : 89.7 MiB (12%)\nAlignment                        : Aligned on interleaves\nInterleave, duration             : 40 ms (1.00 video frame)\nInterleave, preload duration     : 504 ms\nWriting library                  : LAME3.97 \nEncoding settings                : CBR                       \n_______________________________________________________________\n________________\n   Description  |\n________________|\n_______________________________________________________________\nThe Rocker tells the story of a failed drummer who is given a  |\nsecond chance at fame. Robert &quot;Fish&quot; Fishman is the extremely  |\ndedicated and astoundingly passionate drummer for the eighties |\nhair band Vesuvius, who is living the rock n&amp;#039; roll dream until |\nhe is unceremoniously kicked out of the band. Twenty years     |\nafter his rock star fantasies are destroyed, just when Fish has| \nfinally given up all hope, he hears that his nephew&amp;#039;s high     |\nschool rock band A.D.D. is looking for a new drummer. They     |\nreluctantly make him the newest member of the band, giving him |\na chance to reclaim the rock God throne he&amp;#039;s always thought he |\ndeserved, and taking the young band along for the ride of their| \nlives.                                                         |\n_______________________________________________________________|\n____________________\nPlayback Information|\n____________________|\n_______________________________________________________________\nThis Video Has Been Burn Tested And Will Work On ALL Stand     |\nAlone Players As Intended. Enjoy My Release.                   |                \n_______________________________________________________________|\n\n___________________\nNotes              |\n___________________|\n_______________________________________________________________\nBe aware People are starting to use my tag to create fake files|\nMake sure its a real genuine release from me, I have never and |\nwill never do Cams,Telesyncs,Telecine. I have never and will   |\nnever do Rar files. Try to check 1337x.org to see if the file  | \nexist. Fuck the fakers and enjoy my release.                   |\n_______________________________________________________________|\n___________________\n  Post Information |\n___________________|\n_________________________________\nPosted by............: Noir      |\nPosted on............: 10/01/2008|\n_________________________________|","torrent":{"xt":"urn:btih:94853dbbcb92fa6fde464232633414d6589d46c8","amp;dn":"The+Rocker+%282008%29+%5BR5%5D+%5BXvid%5D+%7B1337x%7D-Noir","amp;tr":["udp%3A%2F%2Ftracker.openbittorrent.com%3A80","udp%3A%2F%2Fopen.demonii.com%3A1337","udp%3A%2F%2Ftracker.coppersurfer.tk%3A6969","udp%3A%2F%2Fexodus.desync.com%3A6969"],"infoHash":"94853dbbcb92fa6fde464232633414d6589d46c8","infoHashBuffer":{"type":"Buffer","data":[148,133,61,187,203,146,250,111,222,70,66,50,99,52,20,214,88,157,70,200]},"announce":[],"urlList":[]}}